<?xml version="1.0" encoding="utf-8"?>
<!-- Generator: Adobe Illustrator 16.0.0, SVG Export Plug-In . SVG Version: 6.00 Build 0)  -->
<!DOCTYPE svg PUBLIC "-//W3C//DTD SVG 1.1//EN" "http://www.w3.org/Graphics/SVG/1.1/DTD/svg11.dtd">
<svg version="1.1" xmlns="http://www.w3.org/2000/svg" xmlns:xlink="http://www.w3.org/1999/xlink" x="0px" y="0px"
	 width="59.416px" height="13.657px" viewBox="0 0 59.416 13.657" enable-background="new 0 0 59.416 13.657" xml:space="preserve">
<g id="_FMClarity_copy_2_1_" enable-background="new    ">
	<g id="_FMClarity_copy_2">
		<g>
			<path fill-rule="evenodd" clip-rule="evenodd" fill="#FFFFFF" d="M31.399,10.326c-1.814,0-2.517-1.27-2.528-2.486
				c-0.01-1.228,0.755-2.549,2.528-2.549c0.641,0,1.291,0.22,1.773,0.692l0.923-0.892c-0.756-0.745-1.699-1.123-2.696-1.123
				c-2.653,0-3.902,1.951-3.891,3.871c0.01,1.909,1.164,3.787,3.891,3.787c1.06,0,2.035-0.347,2.79-1.092l-0.943-0.954
				C32.764,10.063,32.04,10.326,31.399,10.326z M34.494,11.458h1.27V4.126h-1.27V11.458z M40.893,7
				c-0.294-0.515-0.955-0.84-1.646-0.84c-1.511-0.01-2.696,0.924-2.696,2.707c0,1.814,1.133,2.759,2.664,2.748
				c0.577-0.011,1.385-0.305,1.679-0.913l0.063,0.756h1.207V6.287h-1.228L40.893,7z M39.361,10.441c-0.85,0-1.531-0.588-1.531-1.573
				c0-0.986,0.682-1.563,1.531-1.563C41.375,7.304,41.375,10.441,39.361,10.441z M44.47,6.885l-0.095-0.599h-1.186v5.172h1.28V8.731
				c0-0.954,0.618-1.312,1.29-1.312c0.419,0,0.66,0.116,0.923,0.336l0.577-1.112c-0.283-0.283-0.798-0.492-1.332-0.492
				C45.403,6.151,44.868,6.245,44.47,6.885z M47.689,11.458h1.279V6.266h-1.279V11.458z M52.535,10.368
				c-0.398,0-0.671-0.241-0.671-0.734V7.399h1.437V6.297h-1.426V4.829l-1.28,0.137v1.332H49.63v1.102h0.965v2.234
				c0,1.29,0.734,1.93,1.856,1.888c0.389-0.011,0.692-0.073,1.06-0.22l-0.356-1.092C52.966,10.304,52.734,10.368,52.535,10.368z
				 M58,6.287l-0.943,2.266l-0.535,1.427l-0.493-1.458l-0.787-2.234h-1.489l2.066,5.088l-0.965,2.244h1.405l3.157-7.332H58z
				 M47.689,5.893h1.279V4.807h-1.279V5.893z"/>
		</g>
	</g>
</g>
<g id="_FMClarity_copy_1_" enable-background="new    ">
	<g id="_FMClarity_copy">
		<g>
			<path fill-rule="evenodd" clip-rule="evenodd" fill="#FFFFFF" d="M13.348,11.458h1.384V8.742h3.682v-1.28h-3.682V5.458h3.892
				V4.126h-5.276V11.458z M25.306,4.126l-2.297,3.158l-2.297-3.158h-1.594v7.342h1.385V6.129l2.339,3.199h0.273l2.392-3.188v5.328
				h1.385V4.126H25.306z"/>
		</g>
	</g>
</g>
<g id="Shape_123_copy_23_1_" enable-background="new    ">
	<g id="Shape_123_copy_23">
		<g>
			<path fill-rule="evenodd" clip-rule="evenodd" fill="#FFFFFF" d="M5.996,10.25l4.622,2.059v-1.655L5.996,8.642V10.25z
				 M5.996,8.113l4.622,2.058V8.516L5.996,6.504V8.113z M5.996,13.643l4.622,0.005v-0.863l-4.622-2.011V13.643z M5.996,2.149v1.608
				l4.622,2.059V4.16L5.996,2.149z M5.996,5.896l4.622,2.058V6.298L5.996,4.288V5.896z"/>
		</g>
	</g>
</g>
<g id="Shape_123_copy_28_1_" enable-background="new    ">
	<g id="Shape_123_copy_28_2_">
		<g>
			<path fill-rule="evenodd" clip-rule="evenodd" fill="#FFFFFF" d="M2.487,12.309l3.096-2.059V8.642l-3.096,2.012V12.309z
				 M2.487,10.17l3.096-2.058V6.504L2.487,8.516V10.17z M2.487,13.648l3.096-0.005v-2.869l-3.096,2.011V13.648z M2.487,7.954
				l3.096-2.058V4.288L2.487,6.298V7.954z M2.487,5.816l3.096-2.059V2.149L2.487,4.16V5.816z M2.487,2.011v1.656l3.096-2.058V0
				L2.487,2.011z"/>
		</g>
	</g>
</g>
<g id="Shape_123_copy_33_1_" enable-background="new    ">
	<g id="Shape_123_copy_33">
		<g>
			<path fill-rule="evenodd" clip-rule="evenodd" fill="#FFFFFF" d="M0,12.595l2.061-1.633V9.687L0,11.282V12.595z M0,10.899
				l2.061-1.632V7.993L0,9.586V10.899z M0,13.657l2.061-0.005v-2.274L0,12.971V13.657z M0,9.141l2.061-1.632V6.233L0,7.829V9.141z
				 M0,6.018v1.313l2.061-1.633V4.423L0,6.018z"/>
		</g>
	</g>
</g>
</svg>
