<?xml version="1.0" encoding="utf-8"?>
<!-- Generator: Adobe Illustrator 16.0.0, SVG Export Plug-In . SVG Version: 6.00 Build 0)  -->
<!DOCTYPE svg PUBLIC "-//W3C//DTD SVG 1.1//EN" "http://www.w3.org/Graphics/SVG/1.1/DTD/svg11.dtd">
<svg version="1.1" id="Layer_1" xmlns="http://www.w3.org/2000/svg" xmlns:xlink="http://www.w3.org/1999/xlink" x="0px" y="0px"
	 width="55.416px" height="13.57px" viewBox="0 0.086 55.416 13.57" enable-background="new 0 0.086 55.416 13.57"
	 xml:space="preserve">
<g id="_FMClarity_copy_2_1_" enable-background="new    ">
	<g id="_FMClarity_copy_2">
		<g>
			<path fill="#FFFFFF" d="M30.517,10.693c-1.613,0-2.238-1.129-2.247-2.21c-0.01-1.092,0.671-2.266,2.247-2.266
				c0.569,0,1.146,0.195,1.575,0.615l0.819-0.793c-0.671-0.662-1.51-0.998-2.395-0.998c-2.358,0-3.469,1.734-3.459,3.44
				c0.009,1.697,1.034,3.365,3.459,3.365c0.941,0,1.809-0.308,2.479-0.97l-0.838-0.848C31.729,10.458,31.086,10.693,30.517,10.693z
				 M33.267,11.698h1.129V5.182h-1.129V11.698z M38.954,7.737c-0.262-0.458-0.849-0.747-1.463-0.747
				c-1.344-0.009-2.396,0.821-2.396,2.406c0,1.612,1.008,2.451,2.367,2.442c0.514-0.01,1.231-0.271,1.492-0.813l0.057,0.672h1.072
				V7.103h-1.091L38.954,7.737z M37.592,10.794c-0.756,0-1.36-0.522-1.36-1.398s0.606-1.389,1.36-1.389
				C39.382,8.006,39.382,10.794,37.592,10.794z M42.133,7.634l-0.085-0.532h-1.054v4.596h1.139V9.275
				c0-0.848,0.548-1.167,1.146-1.167c0.373,0,0.587,0.104,0.821,0.299l0.512-0.987c-0.252-0.252-0.709-0.438-1.184-0.438
				C42.962,6.982,42.486,7.065,42.133,7.634z M44.993,11.698h1.137V7.084h-1.137V11.698z M49.301,10.729
				c-0.354,0-0.597-0.213-0.597-0.652V8.091h1.277v-0.98h-1.268V5.807l-1.138,0.122v1.184h-0.857v0.98h0.857v1.984
				c0,1.147,0.652,1.716,1.649,1.679c0.346-0.011,0.616-0.064,0.942-0.196l-0.316-0.971C49.684,10.673,49.477,10.729,49.301,10.729z
				 M54.157,7.103L53.32,9.117l-0.476,1.269l-0.439-1.296l-0.699-1.986h-1.323l1.837,4.522l-0.857,1.994h1.248l2.806-6.516
				L54.157,7.103L54.157,7.103z M44.993,6.752h1.137V5.788h-1.137V6.752z"/>
		</g>
	</g>
</g>
<g id="_FMClarity_copy_1_" enable-background="new    ">
	<g id="_FMClarity_copy">
		<g>
			<path fill="#FFFFFF" d="M14.473,11.698h1.23V9.286h3.272V8.147h-3.272V6.366h3.459V5.182h-4.689V11.698z M25.101,5.182
				l-2.042,2.807l-2.042-2.807h-1.417v6.524h1.231V6.962l2.079,2.844h0.243l2.126-2.834v4.734h1.231V5.182H25.101z"/>
		</g>
	</g>
</g>
<g id="Shape_123_copy_23_1_" enable-background="new    ">
	<g id="Shape_123_copy_23">
		<path fill="#FFFFFF" d="M7.071,9.64l5.45,2.428v-1.952l-5.45-2.372V9.64z M7.071,7.119l5.45,2.426v-1.95l-5.45-2.373V7.119z
			 M7.071,13.641l5.45,0.005v-1.017l-5.45-2.372V13.641z M7.071,4.505l5.45,2.427V4.979l-5.45-2.37V4.505z"/>
	</g>
</g>
<g id="Shape_123_copy_28_2_">
	<path fill="#FFFFFF" d="M2.933,12.068L6.583,9.64V7.744l-3.651,2.372V12.068z M2.933,9.545l3.651-2.427V5.222L2.933,7.595V9.545z
		 M2.933,13.646l3.651-0.005v-3.384l-3.651,2.372V13.646z M2.933,6.932l3.651-2.427V2.609l-3.651,2.37V6.932z M2.933,4.411
		l3.651-2.428V0.086L2.933,2.458V4.411z"/>
</g>
<g id="Shape_123_copy_33_1_" enable-background="new    ">
	<g id="Shape_123_copy_33">
		<path fill="#FFFFFF" d="M0,12.404l2.431-1.926V8.975L0,10.856V12.404z M0,10.405L2.431,8.48V6.978L0,8.857V10.405z M0,13.657
			l2.431-0.006v-2.682L0,12.848V13.657z M0,8.332l2.431-1.925V4.902L0,6.784V8.332z"/>
	</g>
</g>
</svg>
