<?xml version="1.0" encoding="utf-8"?>
<!-- Generator: Adobe Illustrator 16.0.0, SVG Export Plug-In . SVG Version: 6.00 Build 0)  -->
<!DOCTYPE svg PUBLIC "-//W3C//DTD SVG 1.1//EN" "http://www.w3.org/Graphics/SVG/1.1/DTD/svg11.dtd">
<svg version="1.1" xmlns="http://www.w3.org/2000/svg" xmlns:xlink="http://www.w3.org/1999/xlink" x="0px" y="0px"
	 width="60.945px" height="16.938px" viewBox="0 0 60.945 16.938" enable-background="new 0 0 60.945 16.938" xml:space="preserve">
<g id="_FMClarity_copy_2_1_" enable-background="new    ">
	<g id="_FMClarity_copy_2">
		<g>
			<path fill-rule="evenodd" clip-rule="evenodd" fill="#363535" d="M32.937,13.606c-1.814,0-2.517-1.27-2.528-2.486
				c-0.01-1.228,0.755-2.549,2.528-2.549c0.641,0,1.291,0.22,1.773,0.692l0.923-0.892c-0.756-0.745-1.699-1.123-2.696-1.123
				c-2.653,0-3.902,1.951-3.891,3.871c0.01,1.909,1.164,3.787,3.891,3.787c1.06,0,2.035-0.347,2.79-1.092l-0.943-0.954
				C34.301,13.344,33.577,13.606,32.937,13.606z M36.031,14.739h1.27V7.407h-1.27V14.739z M42.43,10.281
				c-0.294-0.515-0.955-0.84-1.646-0.84c-1.511-0.01-2.696,0.924-2.696,2.707c0,1.814,1.133,2.759,2.664,2.748
				c0.577-0.011,1.385-0.305,1.679-0.913l0.063,0.756h1.207V9.567h-1.228L42.43,10.281z M40.898,13.722
				c-0.85,0-1.531-0.588-1.531-1.573c0-0.986,0.682-1.563,1.531-1.563C42.912,10.585,42.912,13.722,40.898,13.722z M46.007,10.166
				l-0.095-0.599h-1.186v5.172h1.28v-2.728c0-0.954,0.618-1.312,1.29-1.312c0.419,0,0.66,0.116,0.923,0.336l0.577-1.112
				c-0.283-0.283-0.798-0.492-1.332-0.492C46.94,9.432,46.405,9.525,46.007,10.166z M49.227,14.739h1.279V9.547h-1.279V14.739z
				 M54.072,13.648c-0.398,0-0.671-0.241-0.671-0.734V10.68h1.437V9.578h-1.426V8.109l-1.28,0.137v1.332h-0.965v1.102h0.965v2.234
				c0,1.29,0.734,1.93,1.856,1.888c0.389-0.011,0.692-0.073,1.06-0.22l-0.356-1.092C54.503,13.585,54.271,13.648,54.072,13.648z
				 M59.537,9.567l-0.943,2.266l-0.535,1.427l-0.493-1.458l-0.787-2.234h-1.489l2.066,5.088l-0.965,2.244h1.405l3.157-7.332H59.537z
				 M49.227,9.174h1.279V8.088h-1.279V9.174z"/>
		</g>
	</g>
</g>
<g id="_FMClarity_copy_1_" enable-background="new    ">
	<g id="_FMClarity_copy">
		<g>
			<path fill-rule="evenodd" clip-rule="evenodd" fill="#0152B5" d="M14.885,14.739h1.384v-2.717h3.682v-1.28h-3.682V8.739h3.892
				V7.407h-5.276V14.739z M26.843,7.407l-2.297,3.158l-2.297-3.158h-1.594v7.342h1.385V9.41l2.339,3.199h0.273l2.392-3.188v5.328
				h1.385V7.407H26.843z"/>
		</g>
	</g>
</g>
<g id="Shape_123_copy_23_1_" enable-background="new    ">
	<g id="Shape_123_copy_23">
		<g>
			<path fill-rule="evenodd" clip-rule="evenodd" fill="#363535" d="M7.447,12.698l5.716,2.545v-2.047L7.447,10.71V12.698z
				 M7.447,10.055l5.716,2.545v-2.047L7.447,8.066V10.055z M7.447,16.893l5.716,0.007v-1.068l-5.716-2.485V16.893z M7.447,2.681
				v1.989l5.716,2.544V5.167L7.447,2.681z M7.447,7.313l5.716,2.544V7.811L7.447,5.325V7.313z"/>
		</g>
	</g>
</g>
<g id="Shape_123_copy_28_1_" enable-background="new    ">
	<g id="Shape_123_copy_28">
		<g>
			<path fill-rule="evenodd" clip-rule="evenodd" fill="#0152B5" d="M3.108,15.243l3.828-2.545V10.71l-3.828,2.486V15.243z
				 M3.108,12.6l3.828-2.545V8.066l-3.828,2.487V12.6z M3.108,16.899l3.828-0.007v-3.547l-3.828,2.485V16.899z M3.108,9.857
				l3.828-2.544V5.325L3.108,7.811V9.857z M3.108,7.214l3.828-2.544V2.681L3.108,5.167V7.214z M3.108,2.509v2.047l3.828-2.544V0.022
				L3.108,2.509z"/>
		</g>
	</g>
</g>
<g id="Shape_123_copy_33_1_" enable-background="new    ">
	<g id="Shape_123_copy_33">
		<g>
			<path fill-rule="evenodd" clip-rule="evenodd" fill="#0D8CD4" d="M0.033,15.597l2.549-2.018v-1.577l-2.549,1.972V15.597z
				 M0.033,13.5l2.549-2.018V9.905l-2.549,1.972V13.5z M0.033,16.91l2.549-0.006v-2.813l-2.549,1.971V16.91z M0.033,11.326
				l2.549-2.018V7.731L0.033,9.703V11.326z M0.033,7.464v1.624L2.582,7.07V5.493L0.033,7.464z"/>
		</g>
	</g>
</g>
</svg>
