<?xml version="1.0" encoding="utf-8"?>
<!-- Generator: Adobe Illustrator 16.0.0, SVG Export Plug-In . SVG Version: 6.00 Build 0)  -->
<!DOCTYPE svg PUBLIC "-//W3C//DTD SVG 1.1//EN" "http://www.w3.org/Graphics/SVG/1.1/DTD/svg11.dtd">
<svg version="1.1" id="Layer_1" xmlns="http://www.w3.org/2000/svg" xmlns:xlink="http://www.w3.org/1999/xlink" x="0px" y="0px"
	 width="65.795px" height="48.58px" viewBox="0 0 65.795 48.58" enable-background="new 0 0 65.795 48.58" xml:space="preserve">
<g id="g4447-0-5" transform="matrix(1.2440624,0,0,1.2440624,-19.09108,-440.69829)">
	<g id="g4386-4-1-2" transform="matrix(0.7613402,0,0,0.7613402,306.60251,258.89757)">
		<path id="path4352-0-1-0" fill="#202C5C" d="M-380.539,173.373v-3.958h5.366v-1.865h-5.366
			v-2.919h5.671v-1.943h-7.69v10.685H-380.539L-380.539,173.373z"/>
		<path id="path4354-2-0-6" fill="#202C5C" d="M-364.158,173.388h2.019v-10.7h-2.31l-3.347,4.602
			l-3.347-4.602h-2.324v10.7h2.017v-7.78l3.409,4.662h0.398l3.485-4.647V173.388z"/>
		<path id="path4356-7-6-8" fill="#202C5C" d="M-352.202,170.637
			c-0.703,0.703-1.757,1.085-2.689,1.085c-2.646,0-3.668-1.85-3.685-3.623c-0.014-1.788,1.101-3.714,3.685-3.714
			c0.932,0,1.879,0.322,2.582,1.008l1.347-1.299c-1.101-1.085-2.477-1.635-3.928-1.635c-3.868,0-5.687,2.844-5.671,5.64
			c0.014,2.782,1.697,5.518,5.671,5.518c1.542,0,2.965-0.504,4.064-1.59L-352.202,170.637L-352.202,170.637z"/>
		<path id="path4358-9-7-3" fill="#202C5C" d="M-349.975,162.688v10.685h1.85v-10.685H-349.975z"
			/>
		<path id="path4360-3-7-5" fill="#202C5C" d="M-340.567,166.876
			c-0.427-0.749-1.39-1.223-2.398-1.223c-2.202-0.014-3.928,1.346-3.928,3.945c0,2.644,1.65,4.019,3.881,4.005
			c0.841-0.015,2.019-0.443,2.446-1.33l0.093,1.1h1.757v-7.536h-1.788L-340.567,166.876L-340.567,166.876z M-342.798,167.32
			c2.934,0,2.934,4.571,0,4.571c-1.237,0-2.231-0.856-2.231-2.292C-345.029,168.161-344.035,167.32-342.798,167.32z"/>
		<path id="path4362-3-9-4" fill="#202C5C" d="M-337.138,165.837v7.536h1.864v-3.975
			c0-1.39,0.903-1.91,1.881-1.91c0.612,0,0.963,0.167,1.344,0.489l0.841-1.621c-0.412-0.412-1.161-0.718-1.94-0.718
			c-0.765,0-1.545,0.137-2.126,1.07l-0.136-0.872H-337.138L-337.138,165.837z"/>
		<path id="path4372-0-5-6" fill="#202C5C" d="M-328.671,165.807v7.566h-1.866v-7.566H-328.671z"
			/>
		<path id="path4366-5-9-4" fill="#202C5C" d="M-326.194,163.911v1.941h-1.406v1.605h1.406v3.256
			c0,1.88,1.07,2.812,2.705,2.751c0.567-0.015,1.01-0.107,1.545-0.322l-0.52-1.589c-0.274,0.137-0.61,0.229-0.901,0.229
			c-0.582,0-0.979-0.352-0.979-1.069v-3.256h2.095v-1.605h-2.079v-2.139L-326.194,163.911L-326.194,163.911z"/>
		<path id="path4368-8-3-6" fill="#202C5C" d="M-315.156,165.837l-1.375,3.301l-0.779,2.08
			l-0.718-2.125l-1.147-3.256h-2.171l3.013,7.413l-1.406,3.272h2.048l4.601-10.685H-315.156L-315.156,165.837z"/>
		<rect id="rect4384-3-8-1" x="-330.547" y="163.505" fill="#202C5C" width="1.887" height="1.675"/>
	</g>
	<g id="g4520-5-0-0-7" transform="matrix(0.59911952,0,0,0.59911952,1294.5935,379.12549)">
		<path id="rect4424-74-4-5-1" fill="#202C5C" d="
			M-2088.92-34.645v5.225l14.971,6.752v-5.24L-2088.92-34.645z M-2088.92-27.626v5.185l14.971,6.752v-5.2L-2088.92-27.626z
			 M-2088.92-20.647v5.168l14.971,6.75v-5.182L-2088.92-20.647z M-2088.92-13.685v9.28h14.971v-2.544L-2088.92-13.685z"/>
		<path id="path4427-6-7-1-6" fill="#202C5C" d="
			M-2101.667-28.265l-6.528,5.195v3.749l6.528-5.203V-28.265z M-2101.667-22.732l-6.528,5.195v3.791l6.528-5.206V-22.732z
			 M-2101.667-17.16l-6.528,5.195v3.753l6.528-5.206V-17.16z M-2101.667-11.627l-6.528,5.195v2.027h6.528V-11.627z"/>
		<path id="path4429-8-9-0-0" fill="#202C5C" d="
			M-2090.336-41.534l-9.918,6.678v5.24l9.918-6.691V-41.534z M-2090.336-34.513l-9.918,6.678v5.198l9.918-6.691V-34.513z
			 M-2090.336-27.534l-9.918,6.678v5.182l9.918-6.694V-27.534z M-2090.336-20.574l-9.918,6.678v5.069l9.918-6.694V-20.574z
			 M-2090.336-13.727l-9.918,6.678v2.644h9.918V-13.727z"/>
	</g>
</g>
</svg>
